<svg id="Layer_1" data-name="Layer 1" xmlns="http://www.w3.org/2000/svg" viewBox="0 0 24 24"><path fill="#fff" d="M24,0c-.42,0-.82,0-1.22,0C14.13,0,9.24,6.56,7.46,11.83l4.72,4.73C17.61,14.62,24,9.9,24,1.39,24,1,24,.5,24,0ZM12.67,14.22,9.79,11.34C11,8.48,14.48,2.39,22,2,21.74,7.79,18,12,12.67,14.22Zm5.47,1.54c-.55.37-1.09.71-1.63,1a6.09,6.09,0,0,1-1.35,2.65,4.07,4.07,0,0,0-.44-1.74c-.49.23-1,.42-1.41.59.66,1.71,0,3-.92,4.15a6,6,0,0,0,3.73-1.8A7.06,7.06,0,0,0,18.14,15.76ZM6.32,9.29a4,4,0,0,0-1.73-.44A6.3,6.3,0,0,1,7.22,7.5c.31-.55.66-1.09,1-1.63a7.13,7.13,0,0,0-4.87,2,6.07,6.07,0,0,0-1.8,3.73c1.18-.9,2.44-1.57,4.15-.91C5.92,10.24,6.11,9.76,6.32,9.29Zm7.74.66a1,1,0,0,1,1.41-1.41,1,1,0,0,1,0,1.41A1,1,0,0,1,14.06,10ZM19,5a2,2,0,1,0,0,2.83A2,2,0,0,0,19,5ZM17.1,6.91a.7.7,0,1,1,1,0A.71.71,0,0,1,17.1,6.91ZM10.35,17.56C8.86,21.37,4.55,23.77,0,24c.22-4.29,2.66-8.68,6.64-10.15l.81.8C3.11,17.41,2.79,20,2.78,21.23c1.27,0,4.05-.35,6.78-4.47Z"/></svg>